<?xml version="1.0" standalone="no"?>
<!DOCTYPE svg PUBLIC "-//W3C//DTD SVG 20010904//EN"
 "http://www.w3.org/TR/2001/REC-SVG-20010904/DTD/svg10.dtd">
<svg version="1.0" xmlns="http://www.w3.org/2000/svg"
 width="100.000000pt" height="100.000000pt" viewBox="0 0 100.000000 100.000000"
 preserveAspectRatio="xMidYMid meet">
<metadata>
Created by potrace 1.14, written by Peter Selinger 2001-2017
</metadata>
<g transform="translate(0.000000,100.000000) scale(0.100000,-0.100000)"
fill="#000000" stroke="none">
<path d="M514 738 c-4 -13 -9 -27 -10 -33 -1 -5 -26 -108 -55 -227 -29 -120
-51 -220 -48 -222 2 -3 22 -6 43 -8 l39 -3 14 50 c7 28 37 139 66 248 l54 197
-36 10 c-51 14 -59 13 -67 -12z"/>
<path d="M147 622 c-64 -64 -117 -120 -117 -124 0 -3 49 -57 110 -119 l109
-113 28 24 c15 14 32 27 36 31 4 3 -28 42 -73 87 l-81 80 85 85 c48 47 86 88
86 92 0 3 -15 22 -33 41 l-32 34 -118 -118z"/>
<path d="M702 707 c-17 -18 -32 -35 -32 -39 0 -4 38 -46 85 -93 l86 -87 -81
-80 -81 -81 33 -28 c18 -16 36 -28 39 -29 8 0 219 220 219 229 0 3 -53 59
-117 123 l-118 116 -33 -31z"/>
</g>
</svg>
